<svg width="32" height="32" viewBox="0 0 32 32" fill="none" xmlns="http://www.w3.org/2000/svg">
  <rect width="31.9999" height="32" rx="12" fill="#009EFF"/>
  <rect x="9.84656" y="22.1538" width="2.46153" height="2.46153" fill="white"/>
  <rect x="12.3075" y="22.1538" width="2.46153" height="2.46153" fill="white"/>
  <rect x="14.7694" y="22.1538" width="2.46153" height="2.46153" fill="white"/>
  <rect x="17.231" y="22.1538" width="2.46153" height="2.46153" fill="white"/>
  <rect x="19.6926" y="22.1538" width="2.46153" height="2.46153" fill="white"/>
  <rect x="22.1538" y="19.6923" width="2.46153" height="2.46153" fill="white"/>
  <rect x="22.1538" y="17.2308" width="2.46153" height="2.46153" fill="white"/>
  <rect x="19.6926" y="14.7692" width="2.46153" height="2.46153" fill="white"/>
  <rect x="17.231" y="12.3077" width="2.46153" height="2.46153" fill="white"/>
  <rect x="17.231" y="9.84601" width="2.46153" height="2.46153" fill="white"/>
  <rect x="12.3075" y="12.3077" width="2.46153" height="2.46153" fill="white"/>
  <rect x="12.3075" y="9.8461" width="2.46153" height="2.46153" fill="white"/>
  <rect x="17.231" y="7.38458" width="2.46153" height="2.46153" fill="white"/>
  <rect x="9.84656" y="7.38458" width="2.46153" height="2.46153" fill="white"/>
  <rect x="9.84656" y="14.7692" width="2.46153" height="2.46153" fill="white"/>
  <rect x="7.38464" y="19.6923" width="2.76922" height="2.46153" fill="white"/>
  <rect x="7.38464" y="17.2308" width="2.76922" height="2.46153" fill="white"/>
  <rect x="10.1539" y="17.2308" width="4.61537" height="2.46153" fill="#99DCFF"/>
  <rect x="14.7694" y="17.2307" width="7.3846" height="2.46153" fill="#4CC2FF"/>
  <rect x="10.1539" y="19.6923" width="12" height="2.46153" fill="#99DCFF"/>
</svg>